<?xml version="1.0" standalone="no"?>
<!DOCTYPE svg PUBLIC "-//W3C//DTD SVG 20010904//EN"
 "http://www.w3.org/TR/2001/REC-SVG-20010904/DTD/svg10.dtd">
<svg version="1.0" xmlns="http://www.w3.org/2000/svg"
 width="500.000000pt" height="500.000000pt" viewBox="0 0 500.000000 500.000000"
 preserveAspectRatio="xMidYMid meet">
<metadata>
Created by potrace 1.11, written by Peter Selinger 2001-2013
</metadata>
<g transform="translate(0.000000,500.000000) scale(0.100000,-0.100000)"
fill="#000000" stroke="none">
<path d="M714 4989 c-324 -55 -580 -282 -681 -604 l-28 -90 0 -1795 0 -1795
28 -88 c91 -292 292 -493 582 -584 l90 -28 1795 0 1795 0 88 28 c293 91 493
291 584 584 l28 88 0 1795 0 1795 -28 88 c-92 293 -291 492 -584 584 l-88 28
-1765 1 c-971 1 -1788 -2 -1816 -7z m1345 -1075 c12 -15 21 -35 21 -46 0 -26
-44 -68 -73 -68 -33 0 -67 35 -67 70 0 65 79 94 119 44z m981 6 c41 -41 10
-120 -47 -120 -29 0 -73 42 -73 68 0 59 79 93 120 52z m-444 -137 c66 -22 145
-101 167 -167 37 -110 13 -211 -70 -294 l-53 -53 0 -155 0 -154 -140 0 -140 0
0 154 0 155 -53 53 c-117 116 -117 279 -2 394 80 80 183 104 291 67z m-685
-141 c47 -39 16 -122 -47 -122 -33 0 -64 34 -64 70 0 60 64 90 111 52z m1269
-2 c41 -41 12 -120 -45 -120 -39 0 -79 44 -71 78 14 57 78 80 116 42z m-1245
-426 c147 -50 249 -172 277 -333 48 -278 -206 -531 -484 -481 -94 16 -175 59
-237 125 -119 126 -149 312 -76 473 49 108 175 207 295 232 59 12 163 5 225
-16z m1346 16 c223 -42 374 -256 338 -480 -29 -182 -163 -317 -347 -350 -278
-50 -532 203 -484 481 28 161 132 286 277 332 88 28 137 32 216 17z m-1281
-1130 c41 -5 110 -17 152 -26 l78 -17 -35 -48 c-44 -60 -89 -158 -104 -227 -6
-30 -11 -151 -11 -282 l0 -230 -566 0 -565 0 3 233 c3 223 4 234 27 282 77
156 317 281 599 314 106 12 332 12 422 1z m1407 -1 c299 -33 536 -154 613
-314 24 -48 25 -60 28 -282 l4 -233 -846 0 -846 0 0 220 c0 200 2 224 22 277
26 70 114 163 201 211 99 56 285 109 437 125 78 8 297 6 387 -4z"/>
</g>
</svg>
